<?xml version="1.0" encoding="utf-8"?>
<!-- Generator: Adobe Illustrator 22.1.0, SVG Export Plug-In . SVG Version: 6.00 Build 0)  -->
<svg version="1.1" xmlns="http://www.w3.org/2000/svg" xmlns:xlink="http://www.w3.org/1999/xlink" x="0px" y="0px"
	 viewBox="0 0 595.3 841.9" style="enable-background:new 0 0 595.3 841.9;" xml:space="preserve">
<style type="text/css">
	.st0{fill:none;stroke:#231F20;stroke-width:0.25;stroke-miterlimit:10;}
	.st1{fill:#DF0000;}
	.st2{fill:none;stroke:#DF0000;stroke-miterlimit:10;}
	.st3{fill:none;stroke:#DF0000;stroke-width:0.5;stroke-miterlimit:10;}
</style>
<g id="outline">
	<circle class="st0" cx="297.6" cy="420.9" r="34"/>
	<circle class="st0" cx="297.6" cy="420.9" r="36.4"/>
	<circle class="st0" cx="297.6" cy="420.9" r="39.4"/>
	<circle class="st0" cx="297.6" cy="340.9" r="36.4"/>
	<circle class="st0" cx="297.6" cy="340.9" r="39.4"/>
	<circle class="st0" cx="297.6" cy="260.9" r="36.4"/>
	<circle class="st0" cx="297.6" cy="260.9" r="39.4"/>
	<circle class="st0" cx="297.6" cy="500.9" r="36.4"/>
	<circle class="st0" cx="297.6" cy="500.9" r="39.4"/>
	<circle class="st0" cx="297.6" cy="580.9" r="36.4"/>
	<circle class="st0" cx="297.6" cy="580.9" r="39.4"/>
	<circle class="st0" cx="297.6" cy="340.9" r="34"/>
	<circle class="st0" cx="297.6" cy="260.9" r="34"/>
	<circle class="st0" cx="297.6" cy="500.9" r="34"/>
	<circle class="st0" cx="297.6" cy="580.9" r="34"/>
</g>
<g id="my_reticule">
	<g>
		<g>
			<path class="st1" d="M298.1,423.3c-0.2,0-0.4,0.1-0.6,0.1c-0.1,0-0.3,0-0.4,0v6h-0.8v0.8h2.6v-0.8h-0.8V423.3z"/>
			<path class="st1" d="M297.1,418.3c0.1,0,0.3,0,0.4,0c0.2,0,0.4,0,0.6,0.1v-5.7h0.8v-0.8h-2.6v0.8h0.8V418.3z"/>
		</g>
		<g>
			<path class="st1" d="M295.3,421.4c0-0.2-0.1-0.4-0.1-0.6c0-0.1,0-0.3,0-0.4h-6v-0.8h-0.8v2.6h0.8v-0.8H295.3z"/>
			<path class="st1" d="M300.3,420.5c0,0.1,0,0.3,0,0.4c0,0.2,0,0.4-0.1,0.6h5.7v0.8h0.8v-2.6H306v0.8H300.3z"/>
		</g>
		<circle class="st2" cx="297.6" cy="420.8" r="2.6"/>
		<path class="st2" d="M296.5,426.8c-2.4-0.4-4.4-2.3-4.9-4.7"/>
		<path class="st2" d="M303.5,422c-0.5,2.4-2.4,4.3-4.8,4.7"/>
		<path class="st2" d="M298.8,414.9c2.5,0.5,4.4,2.5,4.8,5"/>
		<path class="st2" d="M291.6,419.9c0.4-2.6,2.4-4.6,5-5"/>
		<path class="st2" d="M290.3,413.8l-10.6-10.6c-4.5,4.6-7.3,10.8-7.3,17.7c0,7,2.8,13.3,7.4,17.8l10.4-10.5"/>
		<path class="st2" d="M304.8,428.3l10.5,10.7c4.7-4.6,7.5-10.9,7.5-18c0-7-2.8-13.3-7.4-17.8l-10.6,10.5"/>
		<line class="st2" x1="289.4" y1="427.4" x2="291.2" y2="429"/>
		<line class="st2" x1="284.2" y1="432.8" x2="285.8" y2="434.4"/>
		<line class="st2" x1="305.7" y1="427.3" x2="303.9" y2="429.2"/>
		<line class="st2" x1="311.1" y1="432.8" x2="309.3" y2="434.5"/>
		<line class="st2" x1="285.9" y1="407.5" x2="284.2" y2="409.4"/>
		<line class="st2" x1="289.4" y1="414.7" x2="291.2" y2="412.9"/>
		<line class="st2" x1="303.9" y1="412.8" x2="305.8" y2="414.6"/>
		<line class="st2" x1="309.1" y1="407.5" x2="311" y2="409.5"/>
		<path class="st2" d="M283.3,415.2l-2.3-0.9c-0.6,2.1-0.9,4.3-0.9,6.7c0,2.4,0.4,4.8,1,7l2.2-1"/>
		<path class="st2" d="M312.1,415.2l2.3-0.9c0.6,2.1,0.9,4.4,0.9,6.7c0,2.5-0.4,4.9-1,7.1l-2.3-1.1"/>
		<path class="st2" d="M273.3,414.4l-4.6-1.3c-0.7,2.5-1,5.1-1,7.8c0,2.8,0.4,5.4,1.1,8l4.5-1.3"/>
		<path class="st2" d="M321.9,414.6l4.7-1.3c0.6,2.4,1,5,1,7.6c0,2.7-0.4,5.4-1.1,7.9l-4.5-1.3"/>
		<polyline class="st2" points="279.2,453.5 284.9,442.8 310.4,442.8 316.2,453.5 		"/>
		<polyline class="st2" points="279.2,388.4 284.9,399.1 310.4,399.1 316.2,388.3 		"/>
		<polyline class="st3" points="286.9,391.5 289.8,391.5 287.5,394.2 		"/>
		<polyline class="st3" points="290.6,391.3 290.6,392.2 292.8,392.2 294.2,391.4 		"/>
		<path class="st3" d="M295.9,391.4c-0.4,0.7-0.5,2.1-0.1,2.5s1.7-2.3,1.7-2.3l1.4,2.5"/>
		<polyline class="st3" points="299.8,391.4 299.8,393.9 301.9,393.9 303.2,391.5 300.8,391.5 300.8,392.1 		"/>
		<polyline class="st3" points="304,391.3 305.3,394.1 306.7,391.5 307.9,391.5 		"/>
		<line class="st3" x1="307.3" y1="391.5" x2="307.3" y2="394.5"/>
		<polyline class="st3" points="290.4,394 290.4,393.2 292.8,393.2 294.2,394.1 		"/>
		<polyline class="st3" points="307.3,445.8 306.4,445.8 304.3,449.3 307.3,449.3 		"/>
		<g>
			<path class="st1" d="M288,447.3l1.3-1.2h0.8v3.6h-0.7v-2.9l-0.5,0.5H288z"/>
			<path class="st1" d="M291.7,446h2.9c0.2,0,0.4,0.1,0.6,0.2c0.2,0.1,0.2,0.3,0.2,0.5v2.3c0,0.2-0.1,0.3-0.2,0.5
				c-0.2,0.1-0.4,0.2-0.6,0.2h-2.9c-0.2,0-0.4-0.1-0.6-0.2c-0.2-0.1-0.2-0.3-0.2-0.5v-2.3c0-0.2,0.1-0.3,0.2-0.5
				C291.3,446.1,291.5,446,291.7,446z M294.6,446.6h-2.8c0,0-0.1,0-0.1,0c0,0,0,0,0,0.1v1.9L294.6,446.6z M291.8,449.1h2.8
				c0,0,0.1,0,0.1,0c0,0,0,0,0-0.1v-1.9L291.8,449.1z"/>
			<path class="st1" d="M297,446h2.9c0.2,0,0.4,0.1,0.6,0.2c0.2,0.1,0.2,0.3,0.2,0.5v2.3c0,0.2-0.1,0.3-0.2,0.5
				c-0.2,0.1-0.4,0.2-0.6,0.2H297c-0.2,0-0.4-0.1-0.6-0.2c-0.2-0.1-0.2-0.3-0.2-0.5v-2.3c0-0.2,0.1-0.3,0.2-0.5
				C296.6,446.1,296.8,446,297,446z M299.9,446.6H297c0,0-0.1,0-0.1,0c0,0,0,0,0,0.1v1.9L299.9,446.6z M297.1,449.1h2.8
				c0,0,0.1,0,0.1,0c0,0,0,0,0-0.1v-1.9L297.1,449.1z"/>
		</g>
	</g>
	<g>
		<g>
			<path class="st1" d="M298.1,503.4c-0.2,0-0.4,0.1-0.6,0.1c-0.1,0-0.3,0-0.4,0v6.1h-0.8v0.9h2.7v-0.9h-0.8V503.4z"/>
			<path class="st1" d="M297.1,498.2c0.1,0,0.3,0,0.4,0c0.2,0,0.4,0,0.6,0.1v-5.8h0.8v-0.9h-2.7v0.9h0.8V498.2z"/>
		</g>
		<g>
			<path class="st1" d="M295.2,501.4c0-0.2-0.1-0.4-0.1-0.6c0-0.1,0-0.3,0-0.4h-6.1v-0.8h-0.9v2.7h0.9v-0.8H295.2z"/>
			<path class="st1" d="M300.3,500.4c0,0.1,0,0.3,0,0.4c0,0.2,0,0.4-0.1,0.6h5.8v0.8h0.9v-2.7h-0.9v0.8H300.3z"/>
		</g>
		<circle class="st2" cx="297.6" cy="500.8" r="2.6"/>
		<path class="st2" d="M296.5,506.9c-2.5-0.4-4.5-2.3-5-4.8"/>
		<path class="st2" d="M303.6,502.1c-0.5,2.4-2.4,4.3-4.8,4.8"/>
		<path class="st2" d="M298.8,494.7c2.5,0.5,4.5,2.5,4.9,5.1"/>
		<path class="st2" d="M291.5,499.8c0.4-2.6,2.5-4.7,5.1-5.1"/>
		<path class="st2" d="M290.2,493.6l-10.8-10.8c-4.6,4.6-7.5,11-7.5,18.1c0,7.1,2.9,13.5,7.6,18.2l10.6-10.7"/>
		<path class="st2" d="M304.9,508.4l10.8,10.9c4.7-4.7,7.7-11.2,7.7-18.3c0-7.1-2.9-13.5-7.5-18.2L305,493.5"/>
		<line class="st2" x1="289.3" y1="507.5" x2="291.1" y2="509.2"/>
		<line class="st2" x1="283.9" y1="513" x2="285.6" y2="514.6"/>
		<line class="st2" x1="305.9" y1="507.5" x2="304" y2="509.4"/>
		<line class="st2" x1="311.3" y1="513" x2="309.6" y2="514.8"/>
		<line class="st2" x1="285.6" y1="487.3" x2="283.9" y2="489.2"/>
		<line class="st2" x1="289.2" y1="494.6" x2="291.1" y2="492.7"/>
		<line class="st2" x1="304" y1="492.6" x2="306" y2="494.5"/>
		<line class="st2" x1="309.3" y1="487.2" x2="311.3" y2="489.2"/>
		<path class="st2" d="M283,495.1l-2.4-0.9c-0.6,2.1-0.9,4.4-0.9,6.8c0,2.5,0.4,4.9,1,7.1l2.2-1.1"/>
		<path class="st2" d="M312.4,495.1l2.3-1c0.6,2.1,1,4.4,1,6.8c0,2.5-0.4,5-1.1,7.2l-2.3-1.1"/>
		<path class="st2" d="M272.8,494.3l-4.7-1.3c-0.7,2.5-1,5.2-1,7.9c0,2.8,0.4,5.6,1.1,8.2l4.6-1.3"/>
		<path class="st2" d="M322.4,494.4l4.8-1.3c0.7,2.5,1,5.1,1,7.8c0,2.8-0.4,5.5-1.1,8.1l-4.6-1.3"/>
		<polyline class="st2" points="278.8,534.1 284.6,523.2 310.7,523.2 316.6,534.2 		"/>
		<polyline class="st2" points="278.8,467.7 284.6,478.7 310.7,478.7 316.6,467.7 		"/>
		<polyline class="st3" points="286.7,470.9 289.7,470.9 287.3,473.6 		"/>
		<polyline class="st3" points="290.4,470.7 290.4,471.6 292.7,471.6 294.1,470.8 		"/>
		<path class="st3" d="M295.8,470.8c-0.4,0.7-0.5,2.2-0.1,2.6c0.4,0.4,1.8-2.4,1.8-2.4l1.5,2.5"/>
		<polyline class="st3" points="299.9,470.8 299.9,473.4 302,473.4 303.3,470.9 300.8,470.9 300.8,471.5 		"/>
		<polyline class="st3" points="304.1,470.7 305.5,473.5 306.8,470.9 308.1,470.9 		"/>
		<line class="st3" x1="307.4" y1="470.9" x2="307.4" y2="474"/>
		<polyline class="st3" points="290.3,473.4 290.3,472.7 292.7,472.7 294.1,473.6 		"/>
		<polyline class="st3" points="307.5,526.3 306.6,526.3 304.4,529.8 307.4,529.8 		"/>
		<g>
			<path class="st1" d="M287.8,527.8l1.3-1.3h0.8v3.7h-0.7v-3l-0.5,0.5H287.8z"/>
			<path class="st1" d="M291.6,526.6h3c0.2,0,0.4,0.1,0.6,0.2c0.2,0.1,0.2,0.3,0.2,0.5v2.4c0,0.2-0.1,0.3-0.2,0.5
				c-0.2,0.1-0.4,0.2-0.6,0.2h-3c-0.2,0-0.4-0.1-0.6-0.2c-0.2-0.1-0.2-0.3-0.2-0.5v-2.4c0-0.2,0.1-0.3,0.2-0.5
				C291.2,526.6,291.4,526.6,291.6,526.6z M294.5,527.1h-2.9c0,0-0.1,0-0.1,0c0,0,0,0,0,0.1v1.9L294.5,527.1z M291.7,529.7h2.9
				c0,0,0.1,0,0.1,0c0,0,0,0,0-0.1v-1.9L291.7,529.7z"/>
			<path class="st1" d="M297,526.6h3c0.2,0,0.4,0.1,0.6,0.2c0.2,0.1,0.2,0.3,0.2,0.5v2.4c0,0.2-0.1,0.3-0.2,0.5
				c-0.2,0.1-0.4,0.2-0.6,0.2h-3c-0.2,0-0.4-0.1-0.6-0.2c-0.2-0.1-0.2-0.3-0.2-0.5v-2.4c0-0.2,0.1-0.3,0.2-0.5
				C296.6,526.6,296.8,526.6,297,526.6z M299.9,527.1H297c0,0-0.1,0-0.1,0c0,0,0,0,0,0.1v1.9L299.9,527.1z M297.1,529.7h2.9
				c0,0,0.1,0,0.1,0c0,0,0,0,0-0.1v-1.9L297.1,529.7z"/>
		</g>
	</g>
	<g>
		<g>
			<path class="st1" d="M298.2,583.5c-0.2,0-0.4,0.1-0.6,0.1c-0.2,0-0.3,0-0.4,0v6.4h-0.9v0.9h2.8v-0.9h-0.9V583.5z"/>
			<path class="st1" d="M297.1,578.1c0.1,0,0.3,0,0.4,0c0.2,0,0.4,0,0.6,0.1V572h0.9v-0.9h-2.8v0.9h0.9V578.1z"/>
		</g>
		<g>
			<path class="st1" d="M295.1,581.5c0-0.2-0.1-0.4-0.1-0.6c0-0.2,0-0.3,0-0.4h-6.4v-0.9h-0.9v2.8h0.9v-0.9H295.1z"/>
			<path class="st1" d="M300.5,580.4c0,0.1,0,0.3,0,0.4c0,0.2,0,0.4-0.1,0.6h6.1v0.9h0.9v-2.8h-0.9v0.9H300.5z"/>
		</g>
		<circle class="st2" cx="297.6" cy="580.8" r="2.7"/>
		<path class="st2" d="M296.4,587.2c-2.6-0.5-4.7-2.5-5.2-5"/>
		<path class="st2" d="M303.9,582.1c-0.5,2.5-2.5,4.6-5.1,5.1"/>
		<path class="st2" d="M298.9,574.4c2.6,0.5,4.7,2.7,5.1,5.3"/>
		<path class="st2" d="M291.1,579.8c0.4-2.7,2.6-4.9,5.3-5.4"/>
		<path class="st2" d="M289.8,573.2l-11.3-11.3c-4.8,4.9-7.8,11.6-7.8,19c0,7.5,3,14.2,7.9,19.1l11.2-11.3"/>
		<path class="st2" d="M305.3,588.8l11.3,11.4c5-4.9,8.1-11.7,8.1-19.3c0-7.5-3-14.2-7.9-19.1l-11.3,11.2"/>
		<line class="st2" x1="288.9" y1="587.8" x2="290.7" y2="589.6"/>
		<line class="st2" x1="283.2" y1="593.6" x2="285" y2="595.3"/>
		<line class="st2" x1="306.3" y1="587.8" x2="304.4" y2="589.8"/>
		<line class="st2" x1="312" y1="593.6" x2="310.1" y2="595.5"/>
		<line class="st2" x1="285" y1="566.6" x2="283.2" y2="568.6"/>
		<line class="st2" x1="288.8" y1="574.3" x2="290.7" y2="572.3"/>
		<line class="st2" x1="304.3" y1="572.2" x2="306.4" y2="574.2"/>
		<line class="st2" x1="309.9" y1="566.5" x2="312" y2="568.6"/>
		<path class="st2" d="M282.2,574.8l-2.5-1c-0.6,2.2-1,4.6-1,7.1c0,2.6,0.4,5.1,1.1,7.5l2.3-1.1"/>
		<path class="st2" d="M313.1,574.8l2.4-1c0.6,2.3,1,4.7,1,7.2c0,2.7-0.4,5.2-1.1,7.6l-2.5-1.2"/>
		<path class="st2" d="M271.5,574l-4.9-1.4c-0.7,2.7-1.1,5.5-1.1,8.3c0,3,0.4,5.8,1.2,8.6l4.8-1.4"/>
		<path class="st2" d="M323.7,574.1l5.1-1.4c0.7,2.6,1.1,5.4,1.1,8.2c0,2.9-0.4,5.8-1.1,8.5l-4.8-1.4"/>
		<polyline class="st2" points="277.8,615.8 284,604.3 311.4,604.3 317.5,615.9 		"/>
		<polyline class="st2" points="277.8,546.1 284,557.6 311.4,557.6 317.5,546 		"/>
		<polyline class="st3" points="286.1,549.4 289.3,549.4 286.8,552.3 		"/>
		<polyline class="st3" points="290.1,549.2 290.1,550.1 292.5,550.1 293.9,549.3 		"/>
		<path class="st3" d="M295.7,549.3c-0.4,0.7-0.6,2.3-0.1,2.7c0.4,0.4,1.8-2.5,1.8-2.5l1.5,2.6"/>
		<polyline class="st3" points="300,549.3 300,552 302.2,552 303.6,549.4 301,549.4 301,550.1 		"/>
		<polyline class="st3" points="304.5,549.2 305.9,552.1 307.3,549.4 308.7,549.4 		"/>
		<line class="st3" x1="307.9" y1="549.4" x2="307.9" y2="552.6"/>
		<polyline class="st3" points="289.9,552.1 289.9,551.2 292.4,551.2 294,552.2 		"/>
		<polyline class="st3" points="308,607.6 307.1,607.6 304.8,611.3 307.9,611.3 		"/>
		<g>
			<path class="st1" d="M287.4,609.2l1.4-1.3h0.9v3.9h-0.7v-3.1l-0.6,0.5H287.4z"/>
			<path class="st1" d="M291.3,607.8h3.1c0.2,0,0.5,0.1,0.6,0.2c0.2,0.1,0.3,0.3,0.3,0.5v2.5c0,0.2-0.1,0.4-0.3,0.5
				c-0.2,0.1-0.4,0.2-0.6,0.2h-3.1c-0.2,0-0.5-0.1-0.6-0.2c-0.2-0.1-0.3-0.3-0.3-0.5v-2.5c0-0.2,0.1-0.4,0.3-0.5
				C290.8,607.9,291.1,607.8,291.3,607.8z M294.3,608.4h-3.1c0,0-0.1,0-0.1,0c0,0,0,0.1,0,0.1v2L294.3,608.4z M291.4,611.2h3.1
				c0,0,0.1,0,0.1,0c0,0,0-0.1,0-0.1v-2L291.4,611.2z"/>
			<path class="st1" d="M297,607.8h3.1c0.2,0,0.5,0.1,0.6,0.2c0.2,0.1,0.3,0.3,0.3,0.5v2.5c0,0.2-0.1,0.4-0.3,0.5
				c-0.2,0.1-0.4,0.2-0.6,0.2H297c-0.2,0-0.5-0.1-0.6-0.2c-0.2-0.1-0.3-0.3-0.3-0.5v-2.5c0-0.2,0.1-0.4,0.3-0.5
				C296.5,607.9,296.8,607.8,297,607.8z M300.1,608.4H297c0,0-0.1,0-0.1,0c0,0,0,0.1,0,0.1v2L300.1,608.4z M297.1,611.2h3.1
				c0,0,0.1,0,0.1,0c0,0,0-0.1,0-0.1v-2L297.1,611.2z"/>
		</g>
	</g>
	<g>
		<g>
			<path class="st1" d="M298.1,343.2c-0.2,0-0.4,0.1-0.5,0.1c-0.1,0-0.3,0-0.4,0v5.6h-0.8v0.8h2.5v-0.8h-0.8V343.2z"/>
			<path class="st1" d="M297.2,338.4c0.1,0,0.3,0,0.4,0c0.2,0,0.4,0,0.5,0.1V333h0.8v-0.8h-2.5v0.8h0.8V338.4z"/>
		</g>
		<g>
			<path class="st1" d="M295.4,341.4c0-0.2-0.1-0.4-0.1-0.5c0-0.1,0-0.3,0-0.4h-5.6v-0.8h-0.8v2.5h0.8v-0.8H295.4z"/>
			<path class="st1" d="M300.1,340.5c0,0.1,0,0.3,0,0.4c0,0.2,0,0.4-0.1,0.5h5.4v0.8h0.8v-2.5h-0.8v0.8H300.1z"/>
		</g>
		<circle class="st2" cx="297.6" cy="340.8" r="2.4"/>
		<path class="st2" d="M296.6,346.5c-2.3-0.4-4.1-2.2-4.6-4.4"/>
		<path class="st2" d="M303.2,342c-0.5,2.2-2.2,4-4.5,4.5"/>
		<path class="st2" d="M298.7,335.2c2.3,0.5,4.1,2.4,4.5,4.7"/>
		<path class="st2" d="M291.9,339.9c0.4-2.4,2.3-4.3,4.7-4.7"/>
		<path class="st2" d="M290.7,334.1l-10-10c-4.3,4.3-6.9,10.2-6.9,16.8c0,6.6,2.7,12.5,7,16.9l9.8-10"/>
		<path class="st2" d="M304.4,347.8l10,10.1c4.4-4.3,7.1-10.3,7.1-17c0-6.6-2.7-12.5-7-16.8l-10,9.9"/>
		<line class="st2" x1="289.9" y1="347" x2="291.5" y2="348.6"/>
		<line class="st2" x1="284.9" y1="352.1" x2="286.5" y2="353.6"/>
		<line class="st2" x1="305.2" y1="347" x2="303.6" y2="348.8"/>
		<line class="st2" x1="310.3" y1="352.1" x2="308.7" y2="353.8"/>
		<line class="st2" x1="286.5" y1="328.3" x2="284.9" y2="330"/>
		<line class="st2" x1="289.8" y1="335" x2="291.6" y2="333.3"/>
		<line class="st2" x1="303.5" y1="333.2" x2="305.3" y2="335"/>
		<line class="st2" x1="308.5" y1="328.2" x2="310.3" y2="330.1"/>
		<path class="st2" d="M284,335.5l-2.2-0.8c-0.6,2-0.9,4.1-0.9,6.3c0,2.3,0.3,4.5,1,6.6l2.1-1"/>
		<path class="st2" d="M311.3,335.5l2.1-0.9c0.6,2,0.9,4.1,0.9,6.3c0,2.3-0.3,4.6-1,6.7l-2.2-1"/>
		<path class="st2" d="M274.6,334.8l-4.3-1.2c-0.6,2.3-1,4.8-1,7.4c0,2.6,0.4,5.1,1,7.5l4.2-1.2"/>
		<path class="st2" d="M320.6,334.9l4.5-1.2c0.6,2.3,0.9,4.7,0.9,7.2c0,2.6-0.3,5.1-1,7.5l-4.3-1.2"/>
		<polyline class="st2" points="280.2,371.7 285.6,361.6 309.7,361.6 315.2,371.7 		"/>
		<polyline class="st2" points="280.2,310.2 285.6,320.3 309.7,320.3 315.2,310.1 		"/>
		<polyline class="st3" points="287.5,313.1 290.2,313.1 288.1,315.7 		"/>
		<polyline class="st3" points="291,312.9 291,313.7 293.1,313.7 294.4,313 		"/>
		<path class="st3" d="M296,313c-0.4,0.6-0.5,2-0.1,2.4c0.4,0.4,1.6-2.2,1.6-2.2l1.4,2.3"/>
		<polyline class="st3" points="299.7,313 299.7,315.4 301.6,315.4 302.9,313.1 300.6,313.1 300.6,313.7 		"/>
		<polyline class="st3" points="303.7,313 304.9,315.5 306.2,313.1 307.4,313.1 		"/>
		<line class="st3" x1="306.7" y1="313.1" x2="306.7" y2="315.9"/>
		<polyline class="st3" points="290.8,315.5 290.8,314.7 293,314.7 294.4,315.6 		"/>
		<polyline class="st3" points="306.8,364.4 306,364.4 303.9,367.7 306.7,367.7 		"/>
		<g>
			<path class="st1" d="M288.6,365.8l1.2-1.2h0.8v3.4h-0.7v-2.8l-0.5,0.5H288.6z"/>
			<path class="st1" d="M292,364.7h2.8c0.2,0,0.4,0.1,0.6,0.2c0.2,0.1,0.2,0.3,0.2,0.4v2.2c0,0.2-0.1,0.3-0.2,0.4
				c-0.2,0.1-0.3,0.2-0.6,0.2H292c-0.2,0-0.4-0.1-0.6-0.2c-0.2-0.1-0.2-0.3-0.2-0.4v-2.2c0-0.2,0.1-0.3,0.2-0.4
				C291.6,364.7,291.8,364.7,292,364.7z M294.7,365.2H292c0,0-0.1,0-0.1,0c0,0,0,0,0,0.1v1.8L294.7,365.2z M292.1,367.6h2.7
				c0,0,0.1,0,0.1,0c0,0,0,0,0-0.1v-1.8L292.1,367.6z"/>
			<path class="st1" d="M297.1,364.7h2.8c0.2,0,0.4,0.1,0.6,0.2c0.2,0.1,0.2,0.3,0.2,0.4v2.2c0,0.2-0.1,0.3-0.2,0.4
				c-0.2,0.1-0.3,0.2-0.6,0.2h-2.8c-0.2,0-0.4-0.1-0.6-0.2c-0.2-0.1-0.2-0.3-0.2-0.4v-2.2c0-0.2,0.1-0.3,0.2-0.4
				C296.7,364.7,296.9,364.7,297.1,364.7z M299.8,365.2h-2.7c0,0-0.1,0-0.1,0c0,0,0,0,0,0.1v1.8L299.8,365.2z M297.2,367.6h2.7
				c0,0,0.1,0,0.1,0c0,0,0,0,0-0.1v-1.8L297.2,367.6z"/>
		</g>
	</g>
	<g>
		<g>
			<path class="st1" d="M298.1,262.9c-0.2,0-0.3,0.1-0.5,0.1c-0.1,0-0.2,0-0.4,0v5h-0.7v0.7h2.2V268h-0.7V262.9z"/>
			<path class="st1" d="M297.2,258.7c0.1,0,0.2,0,0.4,0c0.2,0,0.3,0,0.5,0.1v-4.8h0.7v-0.7h-2.2v0.7h0.7V258.7z"/>
		</g>
		<g>
			<path class="st1" d="M295.6,261.4c0-0.2-0.1-0.3-0.1-0.5c0-0.1,0-0.2,0-0.4h-5v-0.7h-0.7v2.2h0.7v-0.7H295.6z"/>
			<path class="st1" d="M299.9,260.5c0,0.1,0,0.2,0,0.4c0,0.2,0,0.3-0.1,0.5h4.8v0.7h0.7v-2.2h-0.7v0.7H299.9z"/>
		</g>
		<circle class="st2" cx="297.6" cy="260.8" r="2.2"/>
		<path class="st2" d="M296.7,265.9c-2.1-0.4-3.7-1.9-4.1-4"/>
		<path class="st2" d="M302.6,261.9c-0.4,2-2,3.6-4,4"/>
		<path class="st2" d="M298.6,255.8c2.1,0.4,3.7,2.1,4,4.2"/>
		<path class="st2" d="M292.5,260c0.3-2.2,2-3.9,4.2-4.2"/>
		<path class="st2" d="M291.4,254.9l-8.9-8.9c-3.8,3.8-6.2,9.1-6.2,15c0,5.9,2.4,11.2,6.3,15.1l8.8-8.9"/>
		<path class="st2" d="M303.6,267.1l8.9,9c3.9-3.9,6.4-9.2,6.4-15.2c0-5.9-2.4-11.2-6.2-15.1l-8.9,8.9"/>
		<line class="st2" x1="290.7" y1="266.4" x2="292.2" y2="267.8"/>
		<line class="st2" x1="286.2" y1="270.9" x2="287.7" y2="272.3"/>
		<line class="st2" x1="304.4" y1="266.4" x2="302.9" y2="267.9"/>
		<line class="st2" x1="309" y1="270.9" x2="307.5" y2="272.4"/>
		<line class="st2" x1="287.7" y1="249.6" x2="286.3" y2="251.2"/>
		<line class="st2" x1="290.7" y1="255.7" x2="292.2" y2="254.1"/>
		<line class="st2" x1="302.9" y1="254.1" x2="304.5" y2="255.6"/>
		<line class="st2" x1="307.3" y1="249.6" x2="308.9" y2="251.2"/>
		<path class="st2" d="M285.5,256.1l-2-0.8c-0.5,1.8-0.8,3.7-0.8,5.6c0,2.1,0.3,4,0.9,5.9l1.8-0.9"/>
		<path class="st2" d="M309.8,256.1l1.9-0.8c0.5,1.8,0.8,3.7,0.8,5.7c0,2.1-0.3,4.1-0.9,6l-1.9-0.9"/>
		<path class="st2" d="M277,255.4l-3.9-1.1c-0.6,2.1-0.9,4.3-0.9,6.6c0,2.3,0.3,4.6,0.9,6.8l3.8-1.1"/>
		<path class="st2" d="M318.2,255.5l4-1.1c0.5,2.1,0.8,4.2,0.8,6.5c0,2.3-0.3,4.6-0.9,6.7l-3.8-1.1"/>
		<polyline class="st2" points="282,288.4 286.9,279.4 308.5,279.4 313.3,288.5 		"/>
		<polyline class="st2" points="282,233.4 286.9,242.5 308.5,242.5 313.3,233.4 		"/>
		<polyline class="st3" points="288.5,236.1 291,236.1 289.1,238.3 		"/>
		<polyline class="st3" points="291.7,235.9 291.7,236.6 293.6,236.6 294.7,236 		"/>
		<path class="st3" d="M296.1,236c-0.3,0.6-0.4,1.8-0.1,2.1s1.5-2,1.5-2l1.2,2.1"/>
		<polyline class="st3" points="299.5,236 299.5,238.1 301.2,238.1 302.3,236.1 300.3,236.1 300.3,236.6 		"/>
		<polyline class="st3" points="303,235.9 304.1,238.2 305.3,236.1 306.3,236.1 		"/>
		<line class="st3" x1="305.8" y1="236.1" x2="305.8" y2="238.6"/>
		<polyline class="st3" points="291.5,238.2 291.5,237.5 293.5,237.5 294.7,238.3 		"/>
		<polyline class="st3" points="305.8,282 305.1,282 303.3,284.9 305.8,284.9 		"/>
		<g>
			<path class="st1" d="M289.5,283.2l1.1-1h0.7v3.1h-0.6v-2.5l-0.4,0.4H289.5z"/>
			<path class="st1" d="M292.6,282.2h2.5c0.2,0,0.4,0.1,0.5,0.2c0.1,0.1,0.2,0.2,0.2,0.4v2c0,0.2-0.1,0.3-0.2,0.4
				c-0.1,0.1-0.3,0.2-0.5,0.2h-2.5c-0.2,0-0.4-0.1-0.5-0.2c-0.1-0.1-0.2-0.2-0.2-0.4v-2c0-0.2,0.1-0.3,0.2-0.4
				C292.3,282.2,292.4,282.2,292.6,282.2z M295,282.6h-2.4c0,0-0.1,0-0.1,0c0,0,0,0,0,0.1v1.6L295,282.6z M292.7,284.8h2.4
				c0,0,0.1,0,0.1,0c0,0,0,0,0-0.1v-1.6L292.7,284.8z"/>
			<path class="st1" d="M297.1,282.2h2.5c0.2,0,0.4,0.1,0.5,0.2c0.1,0.1,0.2,0.2,0.2,0.4v2c0,0.2-0.1,0.3-0.2,0.4
				c-0.1,0.1-0.3,0.2-0.5,0.2h-2.5c-0.2,0-0.4-0.1-0.5-0.2c-0.1-0.1-0.2-0.2-0.2-0.4v-2c0-0.2,0.1-0.3,0.2-0.4
				C296.8,282.2,296.9,282.2,297.1,282.2z M299.5,282.6h-2.4c0,0-0.1,0-0.1,0c0,0,0,0,0,0.1v1.6L299.5,282.6z M297.2,284.8h2.4
				c0,0,0.1,0,0.1,0c0,0,0,0,0-0.1v-1.6L297.2,284.8z"/>
		</g>
	</g>
	<g>
		<g>
			<path class="st1" d="M188.1,423.3c-0.2,0-0.4,0.1-0.6,0.1c-0.1,0-0.3,0-0.4,0v6h-0.8v0.8h2.6v-0.8h-0.8V423.3z"/>
			<path class="st1" d="M187.1,418.3c0.1,0,0.3,0,0.4,0c0.2,0,0.4,0,0.6,0.1v-5.7h0.8v-0.8h-2.6v0.8h0.8V418.3z"/>
		</g>
		<g>
			<path class="st1" d="M185.3,421.4c0-0.2-0.1-0.4-0.1-0.6c0-0.1,0-0.3,0-0.4h-6v-0.8h-0.8v2.6h0.8v-0.8H185.3z"/>
			<path class="st1" d="M190.3,420.5c0,0.1,0,0.3,0,0.4c0,0.2,0,0.4-0.1,0.6h5.7v0.8h0.8v-2.6H196v0.8H190.3z"/>
		</g>
		<circle class="st2" cx="187.6" cy="420.8" r="2.6"/>
		<path class="st2" d="M186.5,426.8c-2.4-0.4-4.4-2.3-4.9-4.7"/>
		<path class="st2" d="M193.5,422c-0.5,2.4-2.4,4.3-4.8,4.7"/>
		<path class="st2" d="M188.8,414.9c2.5,0.5,4.4,2.5,4.8,5"/>
		<path class="st2" d="M181.6,419.9c0.4-2.6,2.4-4.6,5-5"/>
		<path class="st2" d="M180.3,413.8l-10.6-10.6c-4.5,4.6-7.3,10.8-7.3,17.7c0,7,2.8,13.3,7.4,17.8l10.4-10.5"/>
		<path class="st2" d="M194.8,428.3l10.5,10.7c4.7-4.6,7.5-10.9,7.5-18c0-7-2.8-13.3-7.4-17.8l-10.6,10.5"/>
		<line class="st2" x1="179.4" y1="427.4" x2="181.2" y2="429"/>
		<line class="st2" x1="174.2" y1="432.8" x2="175.8" y2="434.4"/>
		<line class="st2" x1="195.7" y1="427.3" x2="193.9" y2="429.2"/>
		<line class="st2" x1="201.1" y1="432.8" x2="199.3" y2="434.5"/>
		<line class="st2" x1="175.9" y1="407.5" x2="174.2" y2="409.4"/>
		<line class="st2" x1="179.4" y1="414.7" x2="181.2" y2="412.9"/>
		<line class="st2" x1="193.9" y1="412.8" x2="195.8" y2="414.6"/>
		<line class="st2" x1="199.1" y1="407.5" x2="201" y2="409.5"/>
		<path class="st2" d="M173.3,415.2l-2.3-0.9c-0.6,2.1-0.9,4.3-0.9,6.7c0,2.4,0.4,4.8,1,7l2.2-1"/>
		<path class="st2" d="M202.1,415.2l2.3-0.9c0.6,2.1,0.9,4.4,0.9,6.7c0,2.5-0.4,4.9-1,7.1l-2.3-1.1"/>
		<path class="st2" d="M163.3,414.4l-4.6-1.3c-0.7,2.5-1,5.1-1,7.8c0,2.8,0.4,5.4,1.1,8l4.5-1.3"/>
		<path class="st2" d="M211.9,414.6l4.7-1.3c0.6,2.4,1,5,1,7.6c0,2.7-0.4,5.4-1.1,7.9l-4.5-1.3"/>
		<polyline class="st2" points="169.2,453.5 174.9,442.8 200.4,442.8 206.2,453.5 		"/>
		<polyline class="st2" points="169.2,388.4 174.9,399.1 200.4,399.1 206.2,388.3 		"/>
		<polyline class="st3" points="176.9,391.5 179.8,391.5 177.5,394.2 		"/>
		<polyline class="st3" points="180.6,391.3 180.6,392.2 182.8,392.2 184.2,391.4 		"/>
		<path class="st3" d="M185.9,391.4c-0.4,0.7-0.5,2.1-0.1,2.5s1.7-2.3,1.7-2.3l1.4,2.5"/>
		<polyline class="st3" points="189.8,391.4 189.8,393.9 191.9,393.9 193.2,391.5 190.8,391.5 190.8,392.1 		"/>
		<polyline class="st3" points="194,391.3 195.3,394.1 196.7,391.5 197.9,391.5 		"/>
		<line class="st3" x1="197.3" y1="391.5" x2="197.3" y2="394.5"/>
		<polyline class="st3" points="180.4,394 180.4,393.2 182.8,393.2 184.2,394.1 		"/>
		<polyline class="st3" points="197.3,445.8 196.4,445.8 194.3,449.3 197.3,449.3 		"/>
		<g>
			<path class="st1" d="M178,447.3l1.3-1.2h0.8v3.6h-0.7v-2.9l-0.5,0.5H178z"/>
			<path class="st1" d="M181.7,446h2.9c0.2,0,0.4,0.1,0.6,0.2c0.2,0.1,0.2,0.3,0.2,0.5v2.3c0,0.2-0.1,0.3-0.2,0.5
				c-0.2,0.1-0.4,0.2-0.6,0.2h-2.9c-0.2,0-0.4-0.1-0.6-0.2c-0.2-0.1-0.2-0.3-0.2-0.5v-2.3c0-0.2,0.1-0.3,0.2-0.5
				C181.3,446.1,181.5,446,181.7,446z M184.6,446.6h-2.8c0,0-0.1,0-0.1,0c0,0,0,0,0,0.1v1.9L184.6,446.6z M181.8,449.1h2.8
				c0,0,0.1,0,0.1,0c0,0,0,0,0-0.1v-1.9L181.8,449.1z"/>
			<path class="st1" d="M187,446h2.9c0.2,0,0.4,0.1,0.6,0.2c0.2,0.1,0.2,0.3,0.2,0.5v2.3c0,0.2-0.1,0.3-0.2,0.5
				c-0.2,0.1-0.4,0.2-0.6,0.2H187c-0.2,0-0.4-0.1-0.6-0.2c-0.2-0.1-0.2-0.3-0.2-0.5v-2.3c0-0.2,0.1-0.3,0.2-0.5
				C186.6,446.1,186.8,446,187,446z M189.9,446.6H187c0,0-0.1,0-0.1,0c0,0,0,0,0,0.1v1.9L189.9,446.6z M187.1,449.1h2.8
				c0,0,0.1,0,0.1,0c0,0,0,0,0-0.1v-1.9L187.1,449.1z"/>
		</g>
	</g>
	<g>
		<g>
			<path class="st1" d="M188.1,503.4c-0.2,0-0.4,0.1-0.6,0.1c-0.1,0-0.3,0-0.4,0v6.1h-0.8v0.9h2.7v-0.9h-0.8V503.4z"/>
			<path class="st1" d="M187.1,498.2c0.1,0,0.3,0,0.4,0c0.2,0,0.4,0,0.6,0.1v-5.8h0.8v-0.9h-2.7v0.9h0.8V498.2z"/>
		</g>
		<g>
			<path class="st1" d="M185.2,501.4c0-0.2-0.1-0.4-0.1-0.6c0-0.1,0-0.3,0-0.4h-6.1v-0.8h-0.9v2.7h0.9v-0.8H185.2z"/>
			<path class="st1" d="M190.3,500.4c0,0.1,0,0.3,0,0.4c0,0.2,0,0.4-0.1,0.6h5.8v0.8h0.9v-2.7h-0.9v0.8H190.3z"/>
		</g>
		<circle class="st2" cx="187.6" cy="500.8" r="2.6"/>
		<path class="st2" d="M186.5,506.9c-2.5-0.4-4.5-2.3-5-4.8"/>
		<path class="st2" d="M193.6,502.1c-0.5,2.4-2.4,4.3-4.8,4.8"/>
		<path class="st2" d="M188.8,494.7c2.5,0.5,4.5,2.5,4.9,5.1"/>
		<path class="st2" d="M181.5,499.8c0.4-2.6,2.5-4.7,5.1-5.1"/>
		<path class="st2" d="M180.2,493.6l-10.8-10.8c-4.6,4.6-7.5,11-7.5,18.1c0,7.1,2.9,13.5,7.6,18.2l10.6-10.7"/>
		<path class="st2" d="M194.9,508.4l10.8,10.9c4.7-4.7,7.7-11.2,7.7-18.3c0-7.1-2.9-13.5-7.5-18.2L195,493.5"/>
		<line class="st2" x1="179.3" y1="507.5" x2="181.1" y2="509.2"/>
		<line class="st2" x1="173.9" y1="513" x2="175.6" y2="514.6"/>
		<line class="st2" x1="195.9" y1="507.5" x2="194" y2="509.4"/>
		<line class="st2" x1="201.3" y1="513" x2="199.6" y2="514.8"/>
		<line class="st2" x1="175.6" y1="487.3" x2="173.9" y2="489.2"/>
		<line class="st2" x1="179.2" y1="494.6" x2="181.1" y2="492.7"/>
		<line class="st2" x1="194" y1="492.6" x2="196" y2="494.5"/>
		<line class="st2" x1="199.3" y1="487.2" x2="201.3" y2="489.2"/>
		<path class="st2" d="M173,495.1l-2.4-0.9c-0.6,2.1-0.9,4.4-0.9,6.8c0,2.5,0.4,4.9,1,7.1l2.2-1.1"/>
		<path class="st2" d="M202.4,495.1l2.3-1c0.6,2.1,1,4.4,1,6.8c0,2.5-0.4,5-1.1,7.2l-2.3-1.1"/>
		<path class="st2" d="M162.8,494.3l-4.7-1.3c-0.7,2.5-1,5.2-1,7.9c0,2.8,0.4,5.6,1.1,8.2l4.6-1.3"/>
		<path class="st2" d="M212.4,494.4l4.8-1.3c0.7,2.5,1,5.1,1,7.8c0,2.8-0.4,5.5-1.1,8.1l-4.6-1.3"/>
		<polyline class="st2" points="168.8,534.1 174.6,523.2 200.7,523.2 206.6,534.2 		"/>
		<polyline class="st2" points="168.8,467.7 174.6,478.7 200.7,478.7 206.6,467.7 		"/>
		<polyline class="st3" points="176.7,470.9 179.7,470.9 177.3,473.6 		"/>
		<polyline class="st3" points="180.4,470.7 180.4,471.6 182.7,471.6 184.1,470.8 		"/>
		<path class="st3" d="M185.8,470.8c-0.4,0.7-0.5,2.2-0.1,2.6c0.4,0.4,1.8-2.4,1.8-2.4l1.5,2.5"/>
		<polyline class="st3" points="189.9,470.8 189.9,473.4 192,473.4 193.3,470.9 190.8,470.9 190.8,471.5 		"/>
		<polyline class="st3" points="194.1,470.7 195.5,473.5 196.8,470.9 198.1,470.9 		"/>
		<line class="st3" x1="197.4" y1="470.9" x2="197.4" y2="474"/>
		<polyline class="st3" points="180.3,473.4 180.3,472.7 182.7,472.7 184.1,473.6 		"/>
		<polyline class="st3" points="197.5,526.3 196.6,526.3 194.4,529.8 197.4,529.8 		"/>
		<g>
			<path class="st1" d="M177.8,527.8l1.3-1.3h0.8v3.7h-0.7v-3l-0.5,0.5H177.8z"/>
			<path class="st1" d="M181.6,526.6h3c0.2,0,0.4,0.1,0.6,0.2c0.2,0.1,0.2,0.3,0.2,0.5v2.4c0,0.2-0.1,0.3-0.2,0.5
				c-0.2,0.1-0.4,0.2-0.6,0.2h-3c-0.2,0-0.4-0.1-0.6-0.2c-0.2-0.1-0.2-0.3-0.2-0.5v-2.4c0-0.2,0.1-0.3,0.2-0.5
				C181.2,526.6,181.4,526.6,181.6,526.6z M184.5,527.1h-2.9c0,0-0.1,0-0.1,0c0,0,0,0,0,0.1v1.9L184.5,527.1z M181.7,529.7h2.9
				c0,0,0.1,0,0.1,0c0,0,0,0,0-0.1v-1.9L181.7,529.7z"/>
			<path class="st1" d="M187,526.6h3c0.2,0,0.4,0.1,0.6,0.2c0.2,0.1,0.2,0.3,0.2,0.5v2.4c0,0.2-0.1,0.3-0.2,0.5
				c-0.2,0.1-0.4,0.2-0.6,0.2h-3c-0.2,0-0.4-0.1-0.6-0.2c-0.2-0.1-0.2-0.3-0.2-0.5v-2.4c0-0.2,0.1-0.3,0.2-0.5
				C186.6,526.6,186.8,526.6,187,526.6z M189.9,527.1H187c0,0-0.1,0-0.1,0c0,0,0,0,0,0.1v1.9L189.9,527.1z M187.1,529.7h2.9
				c0,0,0.1,0,0.1,0c0,0,0,0,0-0.1v-1.9L187.1,529.7z"/>
		</g>
	</g>
	<g>
		<g>
			<path class="st1" d="M188.2,583.5c-0.2,0-0.4,0.1-0.6,0.1c-0.2,0-0.3,0-0.4,0v6.4h-0.9v0.9h2.8v-0.9h-0.9V583.5z"/>
			<path class="st1" d="M187.1,578.1c0.1,0,0.3,0,0.4,0c0.2,0,0.4,0,0.6,0.1V572h0.9v-0.9h-2.8v0.9h0.9V578.1z"/>
		</g>
		<g>
			<path class="st1" d="M185.1,581.5c0-0.2-0.1-0.4-0.1-0.6c0-0.2,0-0.3,0-0.4h-6.4v-0.9h-0.9v2.8h0.9v-0.9H185.1z"/>
			<path class="st1" d="M190.5,580.4c0,0.1,0,0.3,0,0.4c0,0.2,0,0.4-0.1,0.6h6.1v0.9h0.9v-2.8h-0.9v0.9H190.5z"/>
		</g>
		<circle class="st2" cx="187.6" cy="580.8" r="2.7"/>
		<path class="st2" d="M186.4,587.2c-2.6-0.5-4.7-2.5-5.2-5"/>
		<path class="st2" d="M193.9,582.1c-0.5,2.5-2.5,4.6-5.1,5.1"/>
		<path class="st2" d="M188.9,574.4c2.6,0.5,4.7,2.7,5.1,5.3"/>
		<path class="st2" d="M181.1,579.8c0.4-2.7,2.6-4.9,5.3-5.4"/>
		<path class="st2" d="M179.8,573.2l-11.3-11.3c-4.8,4.9-7.8,11.6-7.8,19c0,7.5,3,14.2,7.9,19.1l11.2-11.3"/>
		<path class="st2" d="M195.3,588.8l11.3,11.4c5-4.9,8.1-11.7,8.1-19.3c0-7.5-3-14.2-7.9-19.1l-11.3,11.2"/>
		<line class="st2" x1="178.9" y1="587.8" x2="180.7" y2="589.6"/>
		<line class="st2" x1="173.2" y1="593.6" x2="175" y2="595.3"/>
		<line class="st2" x1="196.3" y1="587.8" x2="194.4" y2="589.8"/>
		<line class="st2" x1="202" y1="593.6" x2="200.1" y2="595.5"/>
		<line class="st2" x1="175" y1="566.6" x2="173.2" y2="568.6"/>
		<line class="st2" x1="178.8" y1="574.3" x2="180.7" y2="572.3"/>
		<line class="st2" x1="194.3" y1="572.2" x2="196.4" y2="574.2"/>
		<line class="st2" x1="199.9" y1="566.5" x2="202" y2="568.6"/>
		<path class="st2" d="M172.2,574.8l-2.5-1c-0.6,2.2-1,4.6-1,7.1c0,2.6,0.4,5.1,1.1,7.5l2.3-1.1"/>
		<path class="st2" d="M203.1,574.8l2.4-1c0.6,2.3,1,4.7,1,7.2c0,2.7-0.4,5.2-1.1,7.6l-2.5-1.2"/>
		<path class="st2" d="M161.5,574l-4.9-1.4c-0.7,2.7-1.1,5.5-1.1,8.3c0,3,0.4,5.8,1.2,8.6l4.8-1.4"/>
		<path class="st2" d="M213.7,574.1l5.1-1.4c0.7,2.6,1.1,5.4,1.1,8.2c0,2.9-0.4,5.8-1.1,8.5l-4.8-1.4"/>
		<polyline class="st2" points="167.8,615.8 174,604.3 201.4,604.3 207.5,615.9 		"/>
		<polyline class="st2" points="167.8,546.1 174,557.6 201.4,557.6 207.5,546 		"/>
		<polyline class="st3" points="176.1,549.4 179.3,549.4 176.8,552.3 		"/>
		<polyline class="st3" points="180.1,549.2 180.1,550.1 182.5,550.1 183.9,549.3 		"/>
		<path class="st3" d="M185.7,549.3c-0.4,0.7-0.6,2.3-0.1,2.7c0.4,0.4,1.8-2.5,1.8-2.5l1.5,2.6"/>
		<polyline class="st3" points="190,549.3 190,552 192.2,552 193.6,549.4 191,549.4 191,550.1 		"/>
		<polyline class="st3" points="194.5,549.2 195.9,552.1 197.3,549.4 198.7,549.4 		"/>
		<line class="st3" x1="197.9" y1="549.4" x2="197.9" y2="552.6"/>
		<polyline class="st3" points="179.9,552.1 179.9,551.2 182.4,551.2 184,552.2 		"/>
		<polyline class="st3" points="198,607.6 197.1,607.6 194.8,611.3 197.9,611.3 		"/>
		<g>
			<path class="st1" d="M177.4,609.2l1.4-1.3h0.9v3.9h-0.7v-3.1l-0.6,0.5H177.4z"/>
			<path class="st1" d="M181.3,607.8h3.1c0.2,0,0.5,0.1,0.6,0.2c0.2,0.1,0.3,0.3,0.3,0.5v2.5c0,0.2-0.1,0.4-0.3,0.5
				c-0.2,0.1-0.4,0.2-0.6,0.2h-3.1c-0.2,0-0.5-0.1-0.6-0.2c-0.2-0.1-0.3-0.3-0.3-0.5v-2.5c0-0.2,0.1-0.4,0.3-0.5
				C180.8,607.9,181.1,607.8,181.3,607.8z M184.3,608.4h-3.1c0,0-0.1,0-0.1,0c0,0,0,0.1,0,0.1v2L184.3,608.4z M181.4,611.2h3.1
				c0,0,0.1,0,0.1,0c0,0,0-0.1,0-0.1v-2L181.4,611.2z"/>
			<path class="st1" d="M187,607.8h3.1c0.2,0,0.5,0.1,0.6,0.2c0.2,0.1,0.3,0.3,0.3,0.5v2.5c0,0.2-0.1,0.4-0.3,0.5
				c-0.2,0.1-0.4,0.2-0.6,0.2H187c-0.2,0-0.5-0.1-0.6-0.2c-0.2-0.1-0.3-0.3-0.3-0.5v-2.5c0-0.2,0.1-0.4,0.3-0.5
				C186.5,607.9,186.8,607.8,187,607.8z M190.1,608.4H187c0,0-0.1,0-0.1,0c0,0,0,0.1,0,0.1v2L190.1,608.4z M187.1,611.2h3.1
				c0,0,0.1,0,0.1,0c0,0,0-0.1,0-0.1v-2L187.1,611.2z"/>
		</g>
	</g>
	<g>
		<g>
			<path class="st1" d="M188.1,343.2c-0.2,0-0.4,0.1-0.5,0.1c-0.1,0-0.3,0-0.4,0v5.6h-0.8v0.8h2.5v-0.8h-0.8V343.2z"/>
			<path class="st1" d="M187.2,338.4c0.1,0,0.3,0,0.4,0c0.2,0,0.4,0,0.5,0.1V333h0.8v-0.8h-2.5v0.8h0.8V338.4z"/>
		</g>
		<g>
			<path class="st1" d="M185.4,341.4c0-0.2-0.1-0.4-0.1-0.5c0-0.1,0-0.3,0-0.4h-5.6v-0.8h-0.8v2.5h0.8v-0.8H185.4z"/>
			<path class="st1" d="M190.1,340.5c0,0.1,0,0.3,0,0.4c0,0.2,0,0.4-0.1,0.5h5.4v0.8h0.8v-2.5h-0.8v0.8H190.1z"/>
		</g>
		<circle class="st2" cx="187.6" cy="340.8" r="2.4"/>
		<path class="st2" d="M186.6,346.5c-2.3-0.4-4.1-2.2-4.6-4.4"/>
		<path class="st2" d="M193.2,342c-0.5,2.2-2.2,4-4.5,4.5"/>
		<path class="st2" d="M188.7,335.2c2.3,0.5,4.1,2.4,4.5,4.7"/>
		<path class="st2" d="M181.9,339.9c0.4-2.4,2.3-4.3,4.7-4.7"/>
		<path class="st2" d="M180.7,334.1l-10-10c-4.3,4.3-6.9,10.2-6.9,16.8c0,6.6,2.7,12.5,7,16.9l9.8-10"/>
		<path class="st2" d="M194.4,347.8l10,10.1c4.4-4.3,7.1-10.3,7.1-17c0-6.6-2.7-12.5-7-16.8l-10,9.9"/>
		<line class="st2" x1="179.9" y1="347" x2="181.5" y2="348.6"/>
		<line class="st2" x1="174.9" y1="352.1" x2="176.5" y2="353.6"/>
		<line class="st2" x1="195.2" y1="347" x2="193.6" y2="348.8"/>
		<line class="st2" x1="200.3" y1="352.1" x2="198.7" y2="353.8"/>
		<line class="st2" x1="176.5" y1="328.3" x2="174.9" y2="330"/>
		<line class="st2" x1="179.8" y1="335" x2="181.6" y2="333.3"/>
		<line class="st2" x1="193.5" y1="333.2" x2="195.3" y2="335"/>
		<line class="st2" x1="198.5" y1="328.2" x2="200.3" y2="330.1"/>
		<path class="st2" d="M174,335.5l-2.2-0.8c-0.6,2-0.9,4.1-0.9,6.3c0,2.3,0.3,4.5,1,6.6l2.1-1"/>
		<path class="st2" d="M201.3,335.5l2.1-0.9c0.6,2,0.9,4.1,0.9,6.3c0,2.3-0.3,4.6-1,6.7l-2.2-1"/>
		<path class="st2" d="M164.6,334.8l-4.3-1.2c-0.6,2.3-1,4.8-1,7.4c0,2.6,0.4,5.1,1,7.5l4.2-1.2"/>
		<path class="st2" d="M210.6,334.9l4.5-1.2c0.6,2.3,0.9,4.7,0.9,7.2c0,2.6-0.3,5.1-1,7.5l-4.3-1.2"/>
		<polyline class="st2" points="170.2,371.7 175.6,361.6 199.7,361.6 205.2,371.7 		"/>
		<polyline class="st2" points="170.2,310.2 175.6,320.3 199.7,320.3 205.2,310.1 		"/>
		<polyline class="st3" points="177.5,313.1 180.2,313.1 178.1,315.7 		"/>
		<polyline class="st3" points="181,312.9 181,313.7 183.1,313.7 184.4,313 		"/>
		<path class="st3" d="M186,313c-0.4,0.6-0.5,2-0.1,2.4c0.4,0.4,1.6-2.2,1.6-2.2l1.4,2.3"/>
		<polyline class="st3" points="189.7,313 189.7,315.4 191.6,315.4 192.9,313.1 190.6,313.1 190.6,313.7 		"/>
		<polyline class="st3" points="193.7,313 194.9,315.5 196.2,313.1 197.4,313.1 		"/>
		<line class="st3" x1="196.7" y1="313.1" x2="196.7" y2="315.9"/>
		<polyline class="st3" points="180.8,315.5 180.8,314.7 183,314.7 184.4,315.6 		"/>
		<polyline class="st3" points="196.8,364.4 196,364.4 193.9,367.7 196.7,367.7 		"/>
		<g>
			<path class="st1" d="M178.6,365.8l1.2-1.2h0.8v3.4h-0.7v-2.8l-0.5,0.5H178.6z"/>
			<path class="st1" d="M182,364.7h2.8c0.2,0,0.4,0.1,0.6,0.2c0.2,0.1,0.2,0.3,0.2,0.4v2.2c0,0.2-0.1,0.3-0.2,0.4
				c-0.2,0.1-0.3,0.2-0.6,0.2H182c-0.2,0-0.4-0.1-0.6-0.2c-0.2-0.1-0.2-0.3-0.2-0.4v-2.2c0-0.2,0.1-0.3,0.2-0.4
				C181.6,364.7,181.8,364.7,182,364.7z M184.7,365.2H182c0,0-0.1,0-0.1,0c0,0,0,0,0,0.1v1.8L184.7,365.2z M182.1,367.6h2.7
				c0,0,0.1,0,0.1,0c0,0,0,0,0-0.1v-1.8L182.1,367.6z"/>
			<path class="st1" d="M187.1,364.7h2.8c0.2,0,0.4,0.1,0.6,0.2c0.2,0.1,0.2,0.3,0.2,0.4v2.2c0,0.2-0.1,0.3-0.2,0.4
				c-0.2,0.1-0.3,0.2-0.6,0.2h-2.8c-0.2,0-0.4-0.1-0.6-0.2c-0.2-0.1-0.2-0.3-0.2-0.4v-2.2c0-0.2,0.1-0.3,0.2-0.4
				C186.7,364.7,186.9,364.7,187.1,364.7z M189.8,365.2h-2.7c0,0-0.1,0-0.1,0c0,0,0,0,0,0.1v1.8L189.8,365.2z M187.2,367.6h2.7
				c0,0,0.1,0,0.1,0c0,0,0,0,0-0.1v-1.8L187.2,367.6z"/>
		</g>
	</g>
	<g>
		<g>
			<path class="st1" d="M188.1,262.9c-0.2,0-0.3,0.1-0.5,0.1c-0.1,0-0.2,0-0.4,0v5h-0.7v0.7h2.2V268h-0.7V262.9z"/>
			<path class="st1" d="M187.2,258.7c0.1,0,0.2,0,0.4,0c0.2,0,0.3,0,0.5,0.1v-4.8h0.7v-0.7h-2.2v0.7h0.7V258.7z"/>
		</g>
		<g>
			<path class="st1" d="M185.6,261.4c0-0.2-0.1-0.3-0.1-0.5c0-0.1,0-0.2,0-0.4h-5v-0.7h-0.7v2.2h0.7v-0.7H185.6z"/>
			<path class="st1" d="M189.9,260.5c0,0.1,0,0.2,0,0.4c0,0.2,0,0.3-0.1,0.5h4.8v0.7h0.7v-2.2h-0.7v0.7H189.9z"/>
		</g>
		<circle class="st2" cx="187.6" cy="260.8" r="2.2"/>
		<path class="st2" d="M186.7,265.9c-2.1-0.4-3.7-1.9-4.1-4"/>
		<path class="st2" d="M192.6,261.9c-0.4,2-2,3.6-4,4"/>
		<path class="st2" d="M188.6,255.8c2.1,0.4,3.7,2.1,4,4.2"/>
		<path class="st2" d="M182.5,260c0.3-2.2,2-3.9,4.2-4.2"/>
		<path class="st2" d="M181.4,254.9l-8.9-8.9c-3.8,3.8-6.2,9.1-6.2,15c0,5.9,2.4,11.2,6.3,15.1l8.8-8.9"/>
		<path class="st2" d="M193.6,267.1l8.9,9c3.9-3.9,6.4-9.2,6.4-15.2c0-5.9-2.4-11.2-6.2-15.1l-8.9,8.9"/>
		<line class="st2" x1="180.7" y1="266.4" x2="182.2" y2="267.8"/>
		<line class="st2" x1="176.2" y1="270.9" x2="177.7" y2="272.3"/>
		<line class="st2" x1="194.4" y1="266.4" x2="192.9" y2="267.9"/>
		<line class="st2" x1="199" y1="270.9" x2="197.5" y2="272.4"/>
		<line class="st2" x1="177.7" y1="249.6" x2="176.3" y2="251.2"/>
		<line class="st2" x1="180.7" y1="255.7" x2="182.2" y2="254.1"/>
		<line class="st2" x1="192.9" y1="254.1" x2="194.5" y2="255.6"/>
		<line class="st2" x1="197.3" y1="249.6" x2="198.9" y2="251.2"/>
		<path class="st2" d="M175.5,256.1l-2-0.8c-0.5,1.8-0.8,3.7-0.8,5.6c0,2.1,0.3,4,0.9,5.9l1.8-0.9"/>
		<path class="st2" d="M199.8,256.1l1.9-0.8c0.5,1.8,0.8,3.7,0.8,5.7c0,2.1-0.3,4.1-0.9,6l-1.9-0.9"/>
		<path class="st2" d="M167,255.4l-3.9-1.1c-0.6,2.1-0.9,4.3-0.9,6.6c0,2.3,0.3,4.6,0.9,6.8l3.8-1.1"/>
		<path class="st2" d="M208.2,255.5l4-1.1c0.5,2.1,0.8,4.2,0.8,6.5c0,2.3-0.3,4.6-0.9,6.7l-3.8-1.1"/>
		<polyline class="st2" points="172,288.4 176.9,279.4 198.5,279.4 203.3,288.5 		"/>
		<polyline class="st2" points="172,233.4 176.9,242.5 198.5,242.5 203.3,233.4 		"/>
		<polyline class="st3" points="178.5,236.1 181,236.1 179.1,238.3 		"/>
		<polyline class="st3" points="181.7,235.9 181.7,236.6 183.6,236.6 184.7,236 		"/>
		<path class="st3" d="M186.1,236c-0.3,0.6-0.4,1.8-0.1,2.1c0.3,0.3,1.5-2,1.5-2l1.2,2.1"/>
		<polyline class="st3" points="189.5,236 189.5,238.1 191.2,238.1 192.3,236.1 190.3,236.1 190.3,236.6 		"/>
		<polyline class="st3" points="193,235.9 194.1,238.2 195.3,236.1 196.3,236.1 		"/>
		<line class="st3" x1="195.8" y1="236.1" x2="195.8" y2="238.6"/>
		<polyline class="st3" points="181.5,238.2 181.5,237.5 183.5,237.5 184.7,238.3 		"/>
		<polyline class="st3" points="195.8,282 195.1,282 193.3,284.9 195.8,284.9 		"/>
		<g>
			<path class="st1" d="M179.5,283.2l1.1-1h0.7v3.1h-0.6v-2.5l-0.4,0.4H179.5z"/>
			<path class="st1" d="M182.6,282.2h2.5c0.2,0,0.4,0.1,0.5,0.2c0.1,0.1,0.2,0.2,0.2,0.4v2c0,0.2-0.1,0.3-0.2,0.4
				c-0.1,0.1-0.3,0.2-0.5,0.2h-2.5c-0.2,0-0.4-0.1-0.5-0.2c-0.1-0.1-0.2-0.2-0.2-0.4v-2c0-0.2,0.1-0.3,0.2-0.4
				C182.3,282.2,182.4,282.2,182.6,282.2z M185,282.6h-2.4c0,0-0.1,0-0.1,0c0,0,0,0,0,0.1v1.6L185,282.6z M182.7,284.8h2.4
				c0,0,0.1,0,0.1,0c0,0,0,0,0-0.1v-1.6L182.7,284.8z"/>
			<path class="st1" d="M187.1,282.2h2.5c0.2,0,0.4,0.1,0.5,0.2c0.1,0.1,0.2,0.2,0.2,0.4v2c0,0.2-0.1,0.3-0.2,0.4
				c-0.1,0.1-0.3,0.2-0.5,0.2h-2.5c-0.2,0-0.4-0.1-0.5-0.2c-0.1-0.1-0.2-0.2-0.2-0.4v-2c0-0.2,0.1-0.3,0.2-0.4
				C186.8,282.2,186.9,282.2,187.1,282.2z M189.5,282.6h-2.4c0,0-0.1,0-0.1,0c0,0,0,0,0,0.1v1.6L189.5,282.6z M187.2,284.8h2.4
				c0,0,0.1,0,0.1,0c0,0,0,0,0-0.1v-1.6L187.2,284.8z"/>
		</g>
	</g>
	<g>
		<g>
			<path class="st1" d="M408.1,423.3c-0.2,0-0.4,0.1-0.6,0.1c-0.1,0-0.3,0-0.4,0v6h-0.8v0.8h2.6v-0.8h-0.8V423.3z"/>
			<path class="st1" d="M407.1,418.3c0.1,0,0.3,0,0.4,0c0.2,0,0.4,0,0.6,0.1v-5.7h0.8v-0.8h-2.6v0.8h0.8V418.3z"/>
		</g>
		<g>
			<path class="st1" d="M405.3,421.4c0-0.2-0.1-0.4-0.1-0.6c0-0.1,0-0.3,0-0.4h-6v-0.8h-0.8v2.6h0.8v-0.8H405.3z"/>
			<path class="st1" d="M410.3,420.5c0,0.1,0,0.3,0,0.4c0,0.2,0,0.4-0.1,0.6h5.7v0.8h0.8v-2.6H416v0.8H410.3z"/>
		</g>
		<circle class="st2" cx="407.6" cy="420.8" r="2.6"/>
		<path class="st2" d="M406.5,426.8c-2.4-0.4-4.4-2.3-4.9-4.7"/>
		<path class="st2" d="M413.5,422c-0.5,2.4-2.4,4.3-4.8,4.7"/>
		<path class="st2" d="M408.8,414.9c2.5,0.5,4.4,2.5,4.8,5"/>
		<path class="st2" d="M401.6,419.9c0.4-2.6,2.4-4.6,5-5"/>
		<path class="st2" d="M400.3,413.8l-10.6-10.6c-4.5,4.6-7.3,10.8-7.3,17.7c0,7,2.8,13.3,7.4,17.8l10.4-10.5"/>
		<path class="st2" d="M414.8,428.3l10.5,10.7c4.7-4.6,7.5-10.9,7.5-18c0-7-2.8-13.3-7.4-17.8l-10.6,10.5"/>
		<line class="st2" x1="399.4" y1="427.4" x2="401.2" y2="429"/>
		<line class="st2" x1="394.2" y1="432.8" x2="395.8" y2="434.4"/>
		<line class="st2" x1="415.7" y1="427.3" x2="413.9" y2="429.2"/>
		<line class="st2" x1="421.1" y1="432.8" x2="419.3" y2="434.5"/>
		<line class="st2" x1="395.9" y1="407.5" x2="394.2" y2="409.4"/>
		<line class="st2" x1="399.4" y1="414.7" x2="401.2" y2="412.9"/>
		<line class="st2" x1="413.9" y1="412.8" x2="415.8" y2="414.6"/>
		<line class="st2" x1="419.1" y1="407.5" x2="421" y2="409.5"/>
		<path class="st2" d="M393.3,415.2l-2.3-0.9c-0.6,2.1-0.9,4.3-0.9,6.7c0,2.4,0.4,4.8,1,7l2.2-1"/>
		<path class="st2" d="M422.1,415.2l2.3-0.9c0.6,2.1,0.9,4.4,0.9,6.7c0,2.5-0.4,4.9-1,7.1l-2.3-1.1"/>
		<path class="st2" d="M383.3,414.4l-4.6-1.3c-0.7,2.5-1,5.1-1,7.8c0,2.8,0.4,5.4,1.1,8l4.5-1.3"/>
		<path class="st2" d="M431.9,414.6l4.7-1.3c0.6,2.4,1,5,1,7.6c0,2.7-0.4,5.4-1.1,7.9l-4.5-1.3"/>
		<polyline class="st2" points="389.2,453.5 394.9,442.8 420.4,442.8 426.2,453.5 		"/>
		<polyline class="st2" points="389.2,388.4 394.9,399.1 420.4,399.1 426.2,388.3 		"/>
		<polyline class="st3" points="396.9,391.5 399.8,391.5 397.5,394.2 		"/>
		<polyline class="st3" points="400.6,391.3 400.6,392.2 402.8,392.2 404.2,391.4 		"/>
		<path class="st3" d="M405.9,391.4c-0.4,0.7-0.5,2.1-0.1,2.5s1.7-2.3,1.7-2.3l1.4,2.5"/>
		<polyline class="st3" points="409.8,391.4 409.8,393.9 411.9,393.9 413.2,391.5 410.8,391.5 410.8,392.1 		"/>
		<polyline class="st3" points="414,391.3 415.3,394.1 416.7,391.5 417.9,391.5 		"/>
		<line class="st3" x1="417.3" y1="391.5" x2="417.3" y2="394.5"/>
		<polyline class="st3" points="400.4,394 400.4,393.2 402.8,393.2 404.2,394.1 		"/>
		<polyline class="st3" points="417.3,445.8 416.4,445.8 414.3,449.3 417.3,449.3 		"/>
		<g>
			<path class="st1" d="M398,447.3l1.3-1.2h0.8v3.6h-0.7v-2.9l-0.5,0.5H398z"/>
			<path class="st1" d="M401.7,446h2.9c0.2,0,0.4,0.1,0.6,0.2c0.2,0.1,0.2,0.3,0.2,0.5v2.3c0,0.2-0.1,0.3-0.2,0.5
				c-0.2,0.1-0.4,0.2-0.6,0.2h-2.9c-0.2,0-0.4-0.1-0.6-0.2c-0.2-0.1-0.2-0.3-0.2-0.5v-2.3c0-0.2,0.1-0.3,0.2-0.5
				C401.3,446.1,401.5,446,401.7,446z M404.6,446.6h-2.8c0,0-0.1,0-0.1,0c0,0,0,0,0,0.1v1.9L404.6,446.6z M401.8,449.1h2.8
				c0,0,0.1,0,0.1,0c0,0,0,0,0-0.1v-1.9L401.8,449.1z"/>
			<path class="st1" d="M407,446h2.9c0.2,0,0.4,0.1,0.6,0.2c0.2,0.1,0.2,0.3,0.2,0.5v2.3c0,0.2-0.1,0.3-0.2,0.5
				c-0.2,0.1-0.4,0.2-0.6,0.2H407c-0.2,0-0.4-0.1-0.6-0.2c-0.2-0.1-0.2-0.3-0.2-0.5v-2.3c0-0.2,0.1-0.3,0.2-0.5
				C406.6,446.1,406.8,446,407,446z M409.9,446.6H407c0,0-0.1,0-0.1,0c0,0,0,0,0,0.1v1.9L409.9,446.6z M407.1,449.1h2.8
				c0,0,0.1,0,0.1,0c0,0,0,0,0-0.1v-1.9L407.1,449.1z"/>
		</g>
	</g>
	<g>
		<g>
			<path class="st1" d="M408.1,503.4c-0.2,0-0.4,0.1-0.6,0.1c-0.1,0-0.3,0-0.4,0v6.1h-0.8v0.9h2.7v-0.9h-0.8V503.4z"/>
			<path class="st1" d="M407.1,498.2c0.1,0,0.3,0,0.4,0c0.2,0,0.4,0,0.6,0.1v-5.8h0.8v-0.9h-2.7v0.9h0.8V498.2z"/>
		</g>
		<g>
			<path class="st1" d="M405.2,501.4c0-0.2-0.1-0.4-0.1-0.6c0-0.1,0-0.3,0-0.4h-6.1v-0.8h-0.9v2.7h0.9v-0.8H405.2z"/>
			<path class="st1" d="M410.3,500.4c0,0.1,0,0.3,0,0.4c0,0.2,0,0.4-0.1,0.6h5.8v0.8h0.9v-2.7h-0.9v0.8H410.3z"/>
		</g>
		<circle class="st2" cx="407.6" cy="500.8" r="2.6"/>
		<path class="st2" d="M406.5,506.9c-2.5-0.4-4.5-2.3-5-4.8"/>
		<path class="st2" d="M413.6,502.1c-0.5,2.4-2.4,4.3-4.8,4.8"/>
		<path class="st2" d="M408.8,494.7c2.5,0.5,4.5,2.5,4.9,5.1"/>
		<path class="st2" d="M401.5,499.8c0.4-2.6,2.5-4.7,5.1-5.1"/>
		<path class="st2" d="M400.2,493.6l-10.8-10.8c-4.6,4.6-7.5,11-7.5,18.1c0,7.1,2.9,13.5,7.6,18.2l10.6-10.7"/>
		<path class="st2" d="M414.9,508.4l10.8,10.9c4.7-4.7,7.7-11.2,7.7-18.3c0-7.1-2.9-13.5-7.5-18.2L415,493.5"/>
		<line class="st2" x1="399.3" y1="507.5" x2="401.1" y2="509.2"/>
		<line class="st2" x1="393.9" y1="513" x2="395.6" y2="514.6"/>
		<line class="st2" x1="415.9" y1="507.5" x2="414" y2="509.4"/>
		<line class="st2" x1="421.3" y1="513" x2="419.6" y2="514.8"/>
		<line class="st2" x1="395.6" y1="487.3" x2="393.9" y2="489.2"/>
		<line class="st2" x1="399.2" y1="494.6" x2="401.1" y2="492.7"/>
		<line class="st2" x1="414" y1="492.6" x2="416" y2="494.5"/>
		<line class="st2" x1="419.3" y1="487.2" x2="421.3" y2="489.2"/>
		<path class="st2" d="M393,495.1l-2.4-0.9c-0.6,2.1-0.9,4.4-0.9,6.8c0,2.5,0.4,4.9,1,7.1l2.2-1.1"/>
		<path class="st2" d="M422.4,495.1l2.3-1c0.6,2.1,1,4.4,1,6.8c0,2.5-0.4,5-1.1,7.2l-2.3-1.1"/>
		<path class="st2" d="M382.8,494.3l-4.7-1.3c-0.7,2.5-1,5.2-1,7.9c0,2.8,0.4,5.6,1.1,8.2l4.6-1.3"/>
		<path class="st2" d="M432.4,494.4l4.8-1.3c0.7,2.5,1,5.1,1,7.8c0,2.8-0.4,5.5-1.1,8.1l-4.6-1.3"/>
		<polyline class="st2" points="388.8,534.1 394.6,523.2 420.7,523.2 426.6,534.2 		"/>
		<polyline class="st2" points="388.8,467.7 394.6,478.7 420.7,478.7 426.6,467.7 		"/>
		<polyline class="st3" points="396.7,470.9 399.7,470.9 397.3,473.6 		"/>
		<polyline class="st3" points="400.4,470.7 400.4,471.6 402.7,471.6 404.1,470.8 		"/>
		<path class="st3" d="M405.8,470.8c-0.4,0.7-0.5,2.2-0.1,2.6c0.4,0.4,1.8-2.4,1.8-2.4l1.5,2.5"/>
		<polyline class="st3" points="409.9,470.8 409.9,473.4 412,473.4 413.3,470.9 410.8,470.9 410.8,471.5 		"/>
		<polyline class="st3" points="414.1,470.7 415.5,473.5 416.8,470.9 418.1,470.9 		"/>
		<line class="st3" x1="417.4" y1="470.9" x2="417.4" y2="474"/>
		<polyline class="st3" points="400.3,473.4 400.3,472.7 402.7,472.7 404.1,473.6 		"/>
		<polyline class="st3" points="417.5,526.3 416.6,526.3 414.4,529.8 417.4,529.8 		"/>
		<g>
			<path class="st1" d="M397.8,527.8l1.3-1.3h0.8v3.7h-0.7v-3l-0.5,0.5H397.8z"/>
			<path class="st1" d="M401.6,526.6h3c0.2,0,0.4,0.1,0.6,0.2c0.2,0.1,0.2,0.3,0.2,0.5v2.4c0,0.2-0.1,0.3-0.2,0.5
				c-0.2,0.1-0.4,0.2-0.6,0.2h-3c-0.2,0-0.4-0.1-0.6-0.2c-0.2-0.1-0.2-0.3-0.2-0.5v-2.4c0-0.2,0.1-0.3,0.2-0.5
				C401.2,526.6,401.4,526.6,401.6,526.6z M404.5,527.1h-2.9c0,0-0.1,0-0.1,0c0,0,0,0,0,0.1v1.9L404.5,527.1z M401.7,529.7h2.9
				c0,0,0.1,0,0.1,0c0,0,0,0,0-0.1v-1.9L401.7,529.7z"/>
			<path class="st1" d="M407,526.6h3c0.2,0,0.4,0.1,0.6,0.2c0.2,0.1,0.2,0.3,0.2,0.5v2.4c0,0.2-0.1,0.3-0.2,0.5
				c-0.2,0.1-0.4,0.2-0.6,0.2h-3c-0.2,0-0.4-0.1-0.6-0.2c-0.2-0.1-0.2-0.3-0.2-0.5v-2.4c0-0.2,0.1-0.3,0.2-0.5
				C406.6,526.6,406.8,526.6,407,526.6z M409.9,527.1H407c0,0-0.1,0-0.1,0c0,0,0,0,0,0.1v1.9L409.9,527.1z M407.1,529.7h2.9
				c0,0,0.1,0,0.1,0c0,0,0,0,0-0.1v-1.9L407.1,529.7z"/>
		</g>
	</g>
	<g>
		<g>
			<path class="st1" d="M408.2,583.5c-0.2,0-0.4,0.1-0.6,0.1c-0.2,0-0.3,0-0.4,0v6.4h-0.9v0.9h2.8v-0.9h-0.9V583.5z"/>
			<path class="st1" d="M407.1,578.1c0.1,0,0.3,0,0.4,0c0.2,0,0.4,0,0.6,0.1V572h0.9v-0.9h-2.8v0.9h0.9V578.1z"/>
		</g>
		<g>
			<path class="st1" d="M405.1,581.5c0-0.2-0.1-0.4-0.1-0.6c0-0.2,0-0.3,0-0.4h-6.4v-0.9h-0.9v2.8h0.9v-0.9H405.1z"/>
			<path class="st1" d="M410.5,580.4c0,0.1,0,0.3,0,0.4c0,0.2,0,0.4-0.1,0.6h6.1v0.9h0.9v-2.8h-0.9v0.9H410.5z"/>
		</g>
		<circle class="st2" cx="407.6" cy="580.8" r="2.7"/>
		<path class="st2" d="M406.4,587.2c-2.6-0.5-4.7-2.5-5.2-5"/>
		<path class="st2" d="M413.9,582.1c-0.5,2.5-2.5,4.6-5.1,5.1"/>
		<path class="st2" d="M408.9,574.4c2.6,0.5,4.7,2.7,5.1,5.3"/>
		<path class="st2" d="M401.1,579.8c0.4-2.7,2.6-4.9,5.3-5.4"/>
		<path class="st2" d="M399.8,573.2l-11.3-11.3c-4.8,4.9-7.8,11.6-7.8,19c0,7.5,3,14.2,7.9,19.1l11.2-11.3"/>
		<path class="st2" d="M415.3,588.8l11.3,11.4c5-4.9,8.1-11.7,8.1-19.3c0-7.5-3-14.2-7.9-19.1l-11.3,11.2"/>
		<line class="st2" x1="398.9" y1="587.8" x2="400.7" y2="589.6"/>
		<line class="st2" x1="393.2" y1="593.6" x2="395" y2="595.3"/>
		<line class="st2" x1="416.3" y1="587.8" x2="414.4" y2="589.8"/>
		<line class="st2" x1="422" y1="593.6" x2="420.1" y2="595.5"/>
		<line class="st2" x1="395" y1="566.6" x2="393.2" y2="568.6"/>
		<line class="st2" x1="398.8" y1="574.3" x2="400.7" y2="572.3"/>
		<line class="st2" x1="414.3" y1="572.2" x2="416.4" y2="574.2"/>
		<line class="st2" x1="419.9" y1="566.5" x2="422" y2="568.6"/>
		<path class="st2" d="M392.2,574.8l-2.5-1c-0.6,2.2-1,4.6-1,7.1c0,2.6,0.4,5.1,1.1,7.5l2.3-1.1"/>
		<path class="st2" d="M423.1,574.8l2.4-1c0.6,2.3,1,4.7,1,7.2c0,2.7-0.4,5.2-1.1,7.6l-2.5-1.2"/>
		<path class="st2" d="M381.5,574l-4.9-1.4c-0.7,2.7-1.1,5.5-1.1,8.3c0,3,0.4,5.8,1.2,8.6l4.8-1.4"/>
		<path class="st2" d="M433.7,574.1l5.1-1.4c0.7,2.6,1.1,5.4,1.1,8.2c0,2.9-0.4,5.8-1.1,8.5l-4.8-1.4"/>
		<polyline class="st2" points="387.8,615.8 394,604.3 421.4,604.3 427.5,615.9 		"/>
		<polyline class="st2" points="387.8,546.1 394,557.6 421.4,557.6 427.5,546 		"/>
		<polyline class="st3" points="396.1,549.4 399.3,549.4 396.8,552.3 		"/>
		<polyline class="st3" points="400.1,549.2 400.1,550.1 402.5,550.1 403.9,549.3 		"/>
		<path class="st3" d="M405.7,549.3c-0.4,0.7-0.6,2.3-0.1,2.7c0.4,0.4,1.8-2.5,1.8-2.5l1.5,2.6"/>
		<polyline class="st3" points="410,549.3 410,552 412.2,552 413.6,549.4 411,549.4 411,550.1 		"/>
		<polyline class="st3" points="414.5,549.2 415.9,552.1 417.3,549.4 418.7,549.4 		"/>
		<line class="st3" x1="417.9" y1="549.4" x2="417.9" y2="552.6"/>
		<polyline class="st3" points="399.9,552.1 399.9,551.2 402.4,551.2 404,552.2 		"/>
		<polyline class="st3" points="418,607.6 417.1,607.6 414.8,611.3 417.9,611.3 		"/>
		<g>
			<path class="st1" d="M397.4,609.2l1.4-1.3h0.9v3.9h-0.7v-3.1l-0.6,0.5H397.4z"/>
			<path class="st1" d="M401.3,607.8h3.1c0.2,0,0.5,0.1,0.6,0.2c0.2,0.1,0.3,0.3,0.3,0.5v2.5c0,0.2-0.1,0.4-0.3,0.5
				c-0.2,0.1-0.4,0.2-0.6,0.2h-3.1c-0.2,0-0.5-0.1-0.6-0.2c-0.2-0.1-0.3-0.3-0.3-0.5v-2.5c0-0.2,0.1-0.4,0.3-0.5
				C400.8,607.9,401.1,607.8,401.3,607.8z M404.3,608.4h-3.1c0,0-0.1,0-0.1,0c0,0,0,0.1,0,0.1v2L404.3,608.4z M401.4,611.2h3.1
				c0,0,0.1,0,0.1,0c0,0,0-0.1,0-0.1v-2L401.4,611.2z"/>
			<path class="st1" d="M407,607.8h3.1c0.2,0,0.5,0.1,0.6,0.2c0.2,0.1,0.3,0.3,0.3,0.5v2.5c0,0.2-0.1,0.4-0.3,0.5
				c-0.2,0.1-0.4,0.2-0.6,0.2H407c-0.2,0-0.5-0.1-0.6-0.2c-0.2-0.1-0.3-0.3-0.3-0.5v-2.5c0-0.2,0.1-0.4,0.3-0.5
				C406.5,607.9,406.8,607.8,407,607.8z M410.1,608.4H407c0,0-0.1,0-0.1,0c0,0,0,0.1,0,0.1v2L410.1,608.4z M407.1,611.2h3.1
				c0,0,0.1,0,0.1,0c0,0,0-0.1,0-0.1v-2L407.1,611.2z"/>
		</g>
	</g>
	<g>
		<g>
			<path class="st1" d="M408.1,343.2c-0.2,0-0.4,0.1-0.5,0.1c-0.1,0-0.3,0-0.4,0v5.6h-0.8v0.8h2.5v-0.8h-0.8V343.2z"/>
			<path class="st1" d="M407.2,338.4c0.1,0,0.3,0,0.4,0c0.2,0,0.4,0,0.5,0.1V333h0.8v-0.8h-2.5v0.8h0.8V338.4z"/>
		</g>
		<g>
			<path class="st1" d="M405.4,341.4c0-0.2-0.1-0.4-0.1-0.5c0-0.1,0-0.3,0-0.4h-5.6v-0.8h-0.8v2.5h0.8v-0.8H405.4z"/>
			<path class="st1" d="M410.1,340.5c0,0.1,0,0.3,0,0.4c0,0.2,0,0.4-0.1,0.5h5.4v0.8h0.8v-2.5h-0.8v0.8H410.1z"/>
		</g>
		<circle class="st2" cx="407.6" cy="340.8" r="2.4"/>
		<path class="st2" d="M406.6,346.5c-2.3-0.4-4.1-2.2-4.6-4.4"/>
		<path class="st2" d="M413.2,342c-0.5,2.2-2.2,4-4.5,4.5"/>
		<path class="st2" d="M408.7,335.2c2.3,0.5,4.1,2.4,4.5,4.7"/>
		<path class="st2" d="M401.9,339.9c0.4-2.4,2.3-4.3,4.7-4.7"/>
		<path class="st2" d="M400.7,334.1l-10-10c-4.3,4.3-6.9,10.2-6.9,16.8c0,6.6,2.7,12.5,7,16.9l9.8-10"/>
		<path class="st2" d="M414.4,347.8l10,10.1c4.4-4.3,7.1-10.3,7.1-17c0-6.6-2.7-12.5-7-16.8l-10,9.9"/>
		<line class="st2" x1="399.9" y1="347" x2="401.5" y2="348.6"/>
		<line class="st2" x1="394.9" y1="352.1" x2="396.5" y2="353.6"/>
		<line class="st2" x1="415.2" y1="347" x2="413.6" y2="348.8"/>
		<line class="st2" x1="420.3" y1="352.1" x2="418.7" y2="353.8"/>
		<line class="st2" x1="396.5" y1="328.3" x2="394.9" y2="330"/>
		<line class="st2" x1="399.8" y1="335" x2="401.6" y2="333.3"/>
		<line class="st2" x1="413.5" y1="333.2" x2="415.3" y2="335"/>
		<line class="st2" x1="418.5" y1="328.2" x2="420.3" y2="330.1"/>
		<path class="st2" d="M394,335.5l-2.2-0.8c-0.6,2-0.9,4.1-0.9,6.3c0,2.3,0.3,4.5,1,6.6l2.1-1"/>
		<path class="st2" d="M421.3,335.5l2.1-0.9c0.6,2,0.9,4.1,0.9,6.3c0,2.3-0.3,4.6-1,6.7l-2.2-1"/>
		<path class="st2" d="M384.6,334.8l-4.3-1.2c-0.6,2.3-1,4.8-1,7.4c0,2.6,0.4,5.1,1,7.5l4.2-1.2"/>
		<path class="st2" d="M430.6,334.9l4.5-1.2c0.6,2.3,0.9,4.7,0.9,7.2c0,2.6-0.3,5.1-1,7.5l-4.3-1.2"/>
		<polyline class="st2" points="390.2,371.7 395.6,361.6 419.7,361.6 425.2,371.7 		"/>
		<polyline class="st2" points="390.2,310.2 395.6,320.3 419.7,320.3 425.2,310.1 		"/>
		<polyline class="st3" points="397.5,313.1 400.2,313.1 398.1,315.7 		"/>
		<polyline class="st3" points="401,312.9 401,313.7 403.1,313.7 404.4,313 		"/>
		<path class="st3" d="M406,313c-0.4,0.6-0.5,2-0.1,2.4c0.4,0.4,1.6-2.2,1.6-2.2l1.4,2.3"/>
		<polyline class="st3" points="409.7,313 409.7,315.4 411.6,315.4 412.9,313.1 410.6,313.1 410.6,313.7 		"/>
		<polyline class="st3" points="413.7,313 414.9,315.5 416.2,313.1 417.4,313.1 		"/>
		<line class="st3" x1="416.7" y1="313.1" x2="416.7" y2="315.9"/>
		<polyline class="st3" points="400.8,315.5 400.8,314.7 403,314.7 404.4,315.6 		"/>
		<polyline class="st3" points="416.8,364.4 416,364.4 413.9,367.7 416.7,367.7 		"/>
		<g>
			<path class="st1" d="M398.6,365.8l1.2-1.2h0.8v3.4h-0.7v-2.8l-0.5,0.5H398.6z"/>
			<path class="st1" d="M402,364.7h2.8c0.2,0,0.4,0.1,0.6,0.2c0.2,0.1,0.2,0.3,0.2,0.4v2.2c0,0.2-0.1,0.3-0.2,0.4
				c-0.2,0.1-0.3,0.2-0.6,0.2H402c-0.2,0-0.4-0.1-0.6-0.2c-0.2-0.1-0.2-0.3-0.2-0.4v-2.2c0-0.2,0.1-0.3,0.2-0.4
				C401.6,364.7,401.8,364.7,402,364.7z M404.7,365.2H402c0,0-0.1,0-0.1,0c0,0,0,0,0,0.1v1.8L404.7,365.2z M402.1,367.6h2.7
				c0,0,0.1,0,0.1,0c0,0,0,0,0-0.1v-1.8L402.1,367.6z"/>
			<path class="st1" d="M407.1,364.7h2.8c0.2,0,0.4,0.1,0.6,0.2c0.2,0.1,0.2,0.3,0.2,0.4v2.2c0,0.2-0.1,0.3-0.2,0.4
				c-0.2,0.1-0.3,0.2-0.6,0.2h-2.8c-0.2,0-0.4-0.1-0.6-0.2c-0.2-0.1-0.2-0.3-0.2-0.4v-2.2c0-0.2,0.1-0.3,0.2-0.4
				C406.7,364.7,406.9,364.7,407.1,364.7z M409.8,365.2h-2.7c0,0-0.1,0-0.1,0c0,0,0,0,0,0.1v1.8L409.8,365.2z M407.2,367.6h2.7
				c0,0,0.1,0,0.1,0c0,0,0,0,0-0.1v-1.8L407.2,367.6z"/>
		</g>
	</g>
	<g>
		<g>
			<path class="st1" d="M408.1,262.9c-0.2,0-0.3,0.1-0.5,0.1c-0.1,0-0.2,0-0.4,0v5h-0.7v0.7h2.2V268h-0.7V262.9z"/>
			<path class="st1" d="M407.2,258.7c0.1,0,0.2,0,0.4,0c0.2,0,0.3,0,0.5,0.1v-4.8h0.7v-0.7h-2.2v0.7h0.7V258.7z"/>
		</g>
		<g>
			<path class="st1" d="M405.6,261.4c0-0.2-0.1-0.3-0.1-0.5c0-0.1,0-0.2,0-0.4h-5v-0.7h-0.7v2.2h0.7v-0.7H405.6z"/>
			<path class="st1" d="M409.9,260.5c0,0.1,0,0.2,0,0.4c0,0.2,0,0.3-0.1,0.5h4.8v0.7h0.7v-2.2h-0.7v0.7H409.9z"/>
		</g>
		<circle class="st2" cx="407.6" cy="260.8" r="2.2"/>
		<path class="st2" d="M406.7,265.9c-2.1-0.4-3.7-1.9-4.1-4"/>
		<path class="st2" d="M412.6,261.9c-0.4,2-2,3.6-4,4"/>
		<path class="st2" d="M408.6,255.8c2.1,0.4,3.7,2.1,4,4.2"/>
		<path class="st2" d="M402.5,260c0.3-2.2,2-3.9,4.2-4.2"/>
		<path class="st2" d="M401.4,254.9l-8.9-8.9c-3.8,3.8-6.2,9.1-6.2,15c0,5.9,2.4,11.2,6.3,15.1l8.8-8.9"/>
		<path class="st2" d="M413.6,267.1l8.9,9c3.9-3.9,6.4-9.2,6.4-15.2c0-5.9-2.4-11.2-6.2-15.1l-8.9,8.9"/>
		<line class="st2" x1="400.7" y1="266.4" x2="402.2" y2="267.8"/>
		<line class="st2" x1="396.2" y1="270.9" x2="397.7" y2="272.3"/>
		<line class="st2" x1="414.4" y1="266.4" x2="412.9" y2="267.9"/>
		<line class="st2" x1="419" y1="270.9" x2="417.5" y2="272.4"/>
		<line class="st2" x1="397.7" y1="249.6" x2="396.3" y2="251.2"/>
		<line class="st2" x1="400.7" y1="255.7" x2="402.2" y2="254.1"/>
		<line class="st2" x1="412.9" y1="254.1" x2="414.5" y2="255.6"/>
		<line class="st2" x1="417.3" y1="249.6" x2="418.9" y2="251.2"/>
		<path class="st2" d="M395.5,256.1l-2-0.8c-0.5,1.8-0.8,3.7-0.8,5.6c0,2.1,0.3,4,0.9,5.9l1.8-0.9"/>
		<path class="st2" d="M419.8,256.1l1.9-0.8c0.5,1.8,0.8,3.7,0.8,5.7c0,2.1-0.3,4.1-0.9,6l-1.9-0.9"/>
		<path class="st2" d="M387,255.4l-3.9-1.1c-0.6,2.1-0.9,4.3-0.9,6.6c0,2.3,0.3,4.6,0.9,6.8l3.8-1.1"/>
		<path class="st2" d="M428.2,255.5l4-1.1c0.5,2.1,0.8,4.2,0.8,6.5c0,2.3-0.3,4.6-0.9,6.7l-3.8-1.1"/>
		<polyline class="st2" points="392,288.4 396.9,279.4 418.5,279.4 423.3,288.5 		"/>
		<polyline class="st2" points="392,233.4 396.9,242.5 418.5,242.5 423.3,233.4 		"/>
		<polyline class="st3" points="398.5,236.1 401,236.1 399.1,238.3 		"/>
		<polyline class="st3" points="401.7,235.9 401.7,236.6 403.6,236.6 404.7,236 		"/>
		<path class="st3" d="M406.1,236c-0.3,0.6-0.4,1.8-0.1,2.1s1.5-2,1.5-2l1.2,2.1"/>
		<polyline class="st3" points="409.5,236 409.5,238.1 411.2,238.1 412.3,236.1 410.3,236.1 410.3,236.6 		"/>
		<polyline class="st3" points="413,235.9 414.1,238.2 415.3,236.1 416.3,236.1 		"/>
		<line class="st3" x1="415.8" y1="236.1" x2="415.8" y2="238.6"/>
		<polyline class="st3" points="401.5,238.2 401.5,237.5 403.5,237.5 404.7,238.3 		"/>
		<polyline class="st3" points="415.8,282 415.1,282 413.3,284.9 415.8,284.9 		"/>
		<g>
			<path class="st1" d="M399.5,283.2l1.1-1h0.7v3.1h-0.6v-2.5l-0.4,0.4H399.5z"/>
			<path class="st1" d="M402.6,282.2h2.5c0.2,0,0.4,0.1,0.5,0.2c0.1,0.1,0.2,0.2,0.2,0.4v2c0,0.2-0.1,0.3-0.2,0.4
				c-0.1,0.1-0.3,0.2-0.5,0.2h-2.5c-0.2,0-0.4-0.1-0.5-0.2c-0.1-0.1-0.2-0.2-0.2-0.4v-2c0-0.2,0.1-0.3,0.2-0.4
				C402.3,282.2,402.4,282.2,402.6,282.2z M405,282.6h-2.4c0,0-0.1,0-0.1,0c0,0,0,0,0,0.1v1.6L405,282.6z M402.7,284.8h2.4
				c0,0,0.1,0,0.1,0c0,0,0,0,0-0.1v-1.6L402.7,284.8z"/>
			<path class="st1" d="M407.1,282.2h2.5c0.2,0,0.4,0.1,0.5,0.2c0.1,0.1,0.2,0.2,0.2,0.4v2c0,0.2-0.1,0.3-0.2,0.4
				c-0.1,0.1-0.3,0.2-0.5,0.2h-2.5c-0.2,0-0.4-0.1-0.5-0.2c-0.1-0.1-0.2-0.2-0.2-0.4v-2c0-0.2,0.1-0.3,0.2-0.4
				C406.8,282.2,406.9,282.2,407.1,282.2z M409.5,282.6h-2.4c0,0-0.1,0-0.1,0c0,0,0,0,0,0.1v1.6L409.5,282.6z M407.2,284.8h2.4
				c0,0,0.1,0,0.1,0c0,0,0,0,0-0.1v-1.6L407.2,284.8z"/>
		</g>
	</g>
</g>
</svg>
